<svg width="26" height="24" viewBox="0 0 26 24" fill="none" xmlns="http://www.w3.org/2000/svg">
<g clip-path="url(#clip0_199_299)">
<path d="M23.4411 19.697C23.4411 18.0208 22.0823 16.662 20.4061 16.662C18.7299 16.662 17.3711 18.0208 17.3711 19.697C17.3711 21.3732 18.7299 22.732 20.4061 22.732C22.0823 22.732 23.4411 21.3732 23.4411 19.697ZM19.2164 19.697C19.2164 19.0265 19.7599 18.483 20.4304 18.483C21.1009 18.483 21.6444 19.0265 21.6444 19.697C21.6444 20.3675 21.1009 20.911 20.4304 20.911C19.7599 20.911 19.2164 20.3675 19.2164 19.697ZM24.3078 5.11381H7.37438L6.79743 2.66489C6.57986 1.71954 5.76729 1.05295 4.83293 1.05328H1.76068C1.28273 1.05328 0.895264 1.45638 0.895264 1.95362C0.895264 2.45086 1.28273 2.85396 1.76068 2.85396H4.84735C4.98399 2.85016 5.10444 2.94664 5.13582 3.08505L7.46669 13.2619C7.80839 14.7474 9.0851 15.7951 10.5534 15.7948H20.3961C21.8622 15.7923 23.1358 14.7452 23.477 13.2619L25.1501 6.23022C25.214 5.9616 25.1555 5.67736 24.9916 5.45941C24.8277 5.24146 24.5766 5.11402 24.3107 5.11381H24.3078ZM21.7981 12.8387C21.639 13.5081 21.0618 13.9786 20.399 13.9791H10.5534C9.88605 13.9786 9.30619 13.502 9.15138 12.8267L7.78978 6.91448H23.2029L21.7981 12.8387ZM10.8675 22.732C12.5437 22.732 13.9025 21.3732 13.9025 19.697C13.9025 18.0208 12.5437 16.662 10.8675 16.662C9.19128 16.662 7.83245 18.0208 7.83245 19.697C7.83245 21.3732 9.19128 22.732 10.8675 22.732ZM10.8675 18.5072C11.5379 18.5072 12.0815 19.0508 12.0815 19.7213C12.0815 20.3917 11.5379 20.9353 10.8675 20.9353C10.197 20.9353 9.65346 20.3917 9.65346 19.7213C9.65346 19.0508 10.197 18.5072 10.8675 18.5072Z" fill="#022A06"/>
</g>
<defs>
<clipPath id="clip0_199_299">
<rect width="24.2802" height="23.3463" fill="white" transform="translate(0.894043 0.252869)"/>
</clipPath>
</defs>
</svg>
