<svg width="14" height="14" viewBox="0 0 14 14" fill="none" xmlns="http://www.w3.org/2000/svg">
<path d="M13.0001 0.99997C12.8125 0.812499 12.5582 0.707184 12.2931 0.707184C12.0279 0.707184 11.7736 0.812499 11.5861 0.99997L7.00006 5.58597L2.41406 0.99997C2.22653 0.812499 1.97223 0.707184 1.70706 0.707184C1.4419 0.707184 1.18759 0.812499 1.00006 0.99997C0.812591 1.1875 0.707275 1.44181 0.707275 1.70697C0.707275 1.97213 0.812591 2.22644 1.00006 2.41397L5.58606 6.99997L1.00006 11.586C0.812591 11.7735 0.707275 12.0278 0.707275 12.293C0.707275 12.5581 0.812591 12.8124 1.00006 13C1.18759 13.1874 1.4419 13.2928 1.70706 13.2928C1.97223 13.2928 2.22653 13.1874 2.41406 13L7.00006 8.41397L11.5861 13C11.7736 13.1874 12.0279 13.2928 12.2931 13.2928C12.5582 13.2928 12.8125 13.1874 13.0001 13C13.1875 12.8124 13.2928 12.5581 13.2928 12.293C13.2928 12.0278 13.1875 11.7735 13.0001 11.586L8.41406 6.99997L13.0001 2.41397C13.1875 2.22644 13.2928 1.97213 13.2928 1.70697C13.2928 1.44181 13.1875 1.1875 13.0001 0.99997Z" fill="#3A4F39"/>
</svg>
