<svg width="41" height="52" viewBox="0 0 41 52" fill="none" xmlns="http://www.w3.org/2000/svg">
<path d="M19.247 51.6198L19.247 39.7746C17.9734 41.7615 15.426 44.207 10.4077 46.0411C10.4077 46.0411 11.6814 41.6851 15.2732 38.7556C11.9616 39.4689 6.96877 39.367 0.141846 36.3356C0.141846 36.3356 6.43383 32.7438 13.5919 33.7118C9.5416 31.2409 4.47236 26.35 0.574897 16.237C0.574897 16.237 12.038 19.3702 17.7441 29.0502C12.573 16.5681 20.5207 0.672587 20.5207 0.672587C26.7108 14.6066 25.3862 23.8536 23.3738 28.9483C29.1053 19.3447 40.4666 16.237 40.4666 16.237C36.5691 26.35 31.4999 31.2409 27.4495 33.7118C34.6076 32.7438 40.8996 36.3356 40.8996 36.3356C34.0727 39.367 29.0799 39.4689 25.7683 38.7556C29.3601 41.6851 30.6337 46.0411 30.6337 46.0411C25.6154 44.207 23.0681 41.7615 21.7944 39.7746L21.7944 51.6198H19.247Z" fill="#F5FFF7"/>
</svg>
