<svg width="24" height="22" viewBox="0 0 24 22" fill="none" xmlns="http://www.w3.org/2000/svg">
<path d="M18.428 0.676758H5.35408C4.11617 0.678241 2.92938 1.17066 2.05405 2.04599C1.17871 2.92133 0.686297 4.10811 0.684814 5.34602L0.684814 16.5522C0.686297 17.7902 1.17871 18.9769 2.05405 19.8523C2.92938 20.7276 4.11617 21.22 5.35408 21.2215H18.428C19.6659 21.22 20.8527 20.7276 21.728 19.8523C22.6034 18.9769 23.0958 17.7902 23.0973 16.5522V5.34602C23.0958 4.10811 22.6034 2.92133 21.728 2.04599C20.8527 1.17066 19.6659 0.678241 18.428 0.676758V0.676758ZM5.35408 2.54446H18.428C18.9872 2.54556 19.5332 2.71397 19.9959 3.02801C20.4586 3.34206 20.8167 3.78737 21.0241 4.30664L13.8727 11.459C13.3464 11.9832 12.6338 12.2775 11.891 12.2775C11.1482 12.2775 10.4357 11.9832 9.90941 11.459L2.75797 4.30664C2.96542 3.78737 3.32352 3.34206 3.78618 3.02801C4.24884 2.71397 4.7949 2.54556 5.35408 2.54446V2.54446ZM18.428 19.3538H5.35408C4.61106 19.3538 3.89847 19.0586 3.37308 18.5332C2.84768 18.0079 2.55252 17.2953 2.55252 16.5522V6.7468L8.58894 12.7795C9.46548 13.6538 10.653 14.1448 11.891 14.1448C13.1291 14.1448 14.3166 13.6538 15.1931 12.7795L21.2296 6.7468V16.5522C21.2296 17.2953 20.9344 18.0079 20.409 18.5332C19.8836 19.0586 19.171 19.3538 18.428 19.3538Z" fill="#A2BA1E"/>
</svg>
