<svg width="62" height="62" viewBox="0 0 62 62" fill="none" xmlns="http://www.w3.org/2000/svg">
<path d="M30.0676 56.0436L30.0676 44.1984C28.7939 46.1854 26.2466 48.6308 21.2283 50.4649C21.2283 50.4649 22.5019 46.1089 26.0937 43.1795C22.7822 43.8927 17.7893 43.7908 10.9624 40.7595C10.9624 40.7595 17.2544 37.1677 24.4125 38.1357C20.3622 35.6648 15.2929 30.7738 11.3955 20.6608C11.3955 20.6608 22.8586 23.7941 28.5647 33.474C23.3935 20.992 31.3413 5.09644 31.3413 5.09644C37.5314 19.0305 36.2067 28.2774 34.1943 33.3721C39.9259 23.7686 51.2871 20.6608 51.2871 20.6608C47.3897 30.7738 42.3204 35.6648 38.2701 38.1357C45.4282 37.1677 51.7202 40.7595 51.7202 40.7595C44.8932 43.7908 39.9004 43.8927 36.5888 43.1795C40.1806 46.1089 41.4543 50.4649 41.4543 50.4649C36.436 48.6308 33.8886 46.1854 32.615 44.1984V56.0436H30.0676Z" fill="#335918"/>
</svg>
