<svg width="63" height="62" viewBox="0 0 63 62" fill="none" xmlns="http://www.w3.org/2000/svg">
<path d="M30.247 56.6198L30.247 44.7746C28.9734 46.7615 26.426 49.207 21.4077 51.0411C21.4077 51.0411 22.6814 46.6851 26.2732 43.7556C22.9616 44.4689 17.9688 44.367 11.1418 41.3356C11.1418 41.3356 17.4338 37.7438 24.5919 38.7118C20.5416 36.2409 15.4724 31.35 11.5749 21.237C11.5749 21.237 23.038 24.3702 28.7441 34.0502C23.573 21.5681 31.5207 5.67259 31.5207 5.67259C37.7108 19.6066 36.3862 28.8536 34.3738 33.9483C40.1053 24.3447 51.4666 21.237 51.4666 21.237C47.5691 31.35 42.4999 36.2409 38.4495 38.7118C45.6076 37.7438 51.8996 41.3356 51.8996 41.3356C45.0727 44.367 40.0799 44.4689 36.7683 43.7556C40.3601 46.6851 41.6337 51.0411 41.6337 51.0411C36.6154 49.207 34.0681 46.7615 32.7944 44.7746V56.6198H30.247Z" fill="#F5FFF7"/>
</svg>
