<svg width="24" height="24" viewBox="0 0 24 24" fill="none" xmlns="http://www.w3.org/2000/svg">
<path d="M12.8714 1.67704C12.8714 1.42937 12.9698 1.19184 13.1449 1.01671C13.32 0.841578 13.5576 0.743191 13.8052 0.743191C16.2811 0.74591 18.6548 1.73066 20.4056 3.48138C22.1563 5.23211 23.141 7.60582 23.1438 10.0817C23.1438 10.3294 23.0454 10.5669 22.8702 10.742C22.6951 10.9172 22.4576 11.0156 22.2099 11.0156C21.9622 11.0156 21.7247 10.9172 21.5496 10.742C21.3744 10.5669 21.2761 10.3294 21.2761 10.0817C21.2738 8.10101 20.486 6.20207 19.0854 4.8015C17.6849 3.40094 15.7859 2.61312 13.8052 2.61089C13.5576 2.61089 13.32 2.51251 13.1449 2.33738C12.9698 2.16224 12.8714 1.92472 12.8714 1.67704V1.67704ZM13.8052 6.3463C14.7959 6.3463 15.746 6.73985 16.4466 7.44038C17.1471 8.1409 17.5406 9.09102 17.5406 10.0817C17.5406 10.3294 17.639 10.5669 17.8142 10.742C17.9893 10.9172 18.2268 11.0156 18.4745 11.0156C18.7222 11.0156 18.9597 10.9172 19.1348 10.742C19.31 10.5669 19.4083 10.3294 19.4083 10.0817C19.4069 8.59613 18.8161 7.17182 17.7656 6.12135C16.7151 5.07089 15.2908 4.48008 13.8052 4.4786C13.5576 4.4786 13.32 4.57699 13.1449 4.75212C12.9698 4.92725 12.8714 5.16478 12.8714 5.41245C12.8714 5.66012 12.9698 5.89765 13.1449 6.07278C13.32 6.24792 13.5576 6.3463 13.8052 6.3463V6.3463ZM22.2968 16.3749C22.8379 16.9176 23.1418 17.6527 23.1418 18.4191C23.1418 19.1855 22.8379 19.9207 22.2968 20.4633L21.4469 21.443C13.7987 28.7653 -4.81294 10.1583 2.39639 2.48576L3.47032 1.55191C4.0136 1.02585 4.74216 0.734832 5.49836 0.741822C6.25457 0.748813 6.97762 1.05325 7.51109 1.58926C7.54004 1.61821 9.27046 3.86599 9.27046 3.86599C9.78392 4.40541 10.0698 5.12196 10.0685 5.86668C10.0673 6.6114 9.77915 7.32701 9.26393 7.86475L8.18253 9.22444C8.78098 10.6785 9.66087 12.0001 10.7716 13.1131C11.8824 14.2261 13.2021 15.1086 14.655 15.71L16.0231 14.6221C16.5609 14.1073 17.2764 13.8195 18.0209 13.8184C18.7654 13.8174 19.4817 14.1032 20.021 14.6165C20.021 14.6165 22.2678 16.346 22.2968 16.3749ZM21.0118 17.7328C21.0118 17.7328 18.7771 16.0135 18.7481 15.9846C18.5557 15.7938 18.2958 15.6868 18.0248 15.6868C17.7539 15.6868 17.494 15.7938 17.3016 15.9846C17.2764 16.0107 15.3928 17.5114 15.3928 17.5114C15.2659 17.6125 15.1148 17.6787 14.9545 17.7036C14.7942 17.7285 14.6301 17.7112 14.4786 17.6534C12.5963 16.9526 10.8867 15.8555 9.46548 14.4363C8.04426 13.0172 6.94462 11.3092 6.24105 9.42802C6.17867 9.27436 6.15833 9.10685 6.18213 8.94273C6.20593 8.7786 6.273 8.62378 6.37646 8.49416C6.37646 8.49416 7.87716 6.60965 7.90237 6.58537C8.09313 6.39298 8.20016 6.13303 8.20016 5.8621C8.20016 5.59118 8.09313 5.33122 7.90237 5.13883C7.87342 5.11082 6.1542 2.87424 6.1542 2.87424C5.95893 2.69915 5.70409 2.60538 5.44191 2.61215C5.17972 2.61892 4.93006 2.72572 4.74409 2.91066L3.67016 3.84451C-1.59863 10.1798 14.5299 25.4137 20.0817 20.1673L20.9324 19.1868C21.1318 19.0021 21.2515 18.7472 21.2663 18.4758C21.2811 18.2045 21.1898 17.938 21.0118 17.7328V17.7328Z" fill="#A2BA1E"/>
</svg>
