<svg width="1935" height="1745" viewBox="0 0 1935 1745" fill="none" xmlns="http://www.w3.org/2000/svg">
<path opacity="0.3" fill-rule="evenodd" clip-rule="evenodd" d="M905.025 730.637L857.111 611.917C856.592 610.583 855.663 608.307 854.323 605.091L855.577 604.635L858.357 611.509C870.546 642.094 878.263 661.406 881.508 669.444C883.75 675.006 894.746 702.225 906.154 730.265L905.025 730.637ZM929.055 724.816L926.517 708.51L927.677 708.362C928.51 713.664 929.375 719.135 930.239 724.633L929.055 724.816ZM961.956 723.032L962.656 713.994L963.84 714.05C963.614 717.042 963.381 720.069 963.155 723.095L961.956 723.032ZM1058.84 763.93L1066.11 758.312L1067.21 759.464L1060 765.082C1059.62 764.682 1059.23 764.303 1058.84 763.93ZM1087.34 804.66L1094.26 802.406L1149.37 784.401L1150.07 785.889C1125.31 793.965 1102.78 801.339 1088 806.107C1087.77 805.615 1087.56 805.117 1087.34 804.625V804.66ZM1093.74 880.502L1141.56 890.544L1262.61 915.979L1261.97 917.475C1191.69 902.728 1115.92 886.808 1111.06 885.685C1108.79 885.158 1102.16 883.732 1093.39 881.871C1093.51 881.394 1093.63 880.937 1093.74 880.481V880.502ZM1084.96 904.378L1088.33 905.783L1087.77 907.11L1084.32 905.642C1084.53 905.186 1084.73 904.771 1084.96 904.336V904.378ZM1068.01 930.164L1074.62 934.673L1073.61 935.789C1071.71 934.476 1069.49 932.98 1067.05 931.281C1067.38 930.878 1067.7 930.492 1068.01 930.122V930.164ZM1028.35 962.355L1041.8 981.73L1040.74 982.306C1036.72 976.491 1031.77 969.37 1027.28 962.931L1028.35 962.355ZM1004.3 972.889C1014.42 997.951 1024.95 1023.89 1024.95 1023.89L1054.46 1096.75L1053.15 1097.2C1036.68 1056.59 1018.01 1010.5 1016.95 1007.61C1015.8 1004.5 1008.86 987.369 1003.13 973.275L1004.3 972.889ZM970.264 980.185L971.152 985.852L969.93 985.985C969.626 984.068 969.322 982.165 969.034 980.304L970.264 980.185ZM917.943 976.849C915.747 985.325 913.676 993.352 911.838 1000.46L910.234 1000.16C911.379 995.943 913.707 987.032 916.464 976.484L917.943 976.849ZM863.668 951.983C843.421 976.119 826.718 996.034 826.718 996.034C826.718 996.034 764.492 1070.18 722.426 1120.33L721.079 1119.37C769.624 1061.47 840.221 977.242 844.114 972.868C846.178 970.515 853.599 961.723 862.539 951.098L863.668 951.983ZM843.476 933.837C819.103 952.854 799.386 968.247 799.386 968.247L734.418 1018.97L733.274 1017.75C777.964 982.846 818.487 951.225 821.672 948.851C824.063 947.067 832.302 940.677 842.495 932.7C842.837 933.114 843.164 933.479 843.499 933.837H843.476ZM818.635 893.725C778.571 906.724 711.953 928.493 711.953 928.493L577.72 972.137L577.261 970.943L578.039 970.684C595.607 964.967 761.611 910.726 766.275 909.21L818.098 892.257C818.293 892.749 818.472 893.248 818.659 893.725H818.635ZM811.938 867.089C783.228 870.6 737.751 876.303 712.638 879.442L712.444 878.037L752.087 873.072L811.752 865.565C811.829 866.057 811.899 866.563 811.962 867.089H811.938ZM814.516 823.206C786.841 817.336 740.196 807.525 707.452 800.643L707.779 799.239L738.148 805.615L814.913 821.69C814.796 822.195 814.672 822.701 814.524 823.206H814.516ZM825.067 795.974C781.46 777.455 693.178 740.153 693.178 740.153L532.765 672.183L533.287 671.01L541.3 674.416C561.445 682.927 751.355 763.137 756.682 765.398C758.691 766.248 788.819 778.951 825.846 794.583L825.067 795.974ZM838.796 775.419L824.296 765.489L825.262 764.239L839.832 774.169L838.796 775.419ZM593.754 1128.19L594.088 1128.55C554.055 1159.8 483.435 1214.92 470.181 1225.27C451.897 1239.51 293.306 1363.12 281.104 1372.62L183.174 1448.94L182.396 1447.83C182.396 1447.83 266.729 1382.37 276.704 1374.6C283.355 1369.41 297.96 1357.99 320.522 1340.31C400.578 1277.5 444.027 1243.43 450.869 1238.1C457.286 1233.09 477.034 1217.77 491.907 1206.19L491.704 1205.98L592.936 1126.63L594.135 1127.88L593.754 1128.19ZM751.651 639.473L751.277 639.086L752.664 638.005L798.482 685.532L797.096 686.621L796.154 685.645L795.991 685.778L764.251 652.717L751.597 639.515L751.651 639.473ZM1194.5 659.908L1176.82 673.728L1118.65 719.324L1117.44 718.074L1193.75 658.272L1194.96 659.522L1194.5 659.908ZM600.848 825.355L600.949 824.049L720.916 831.774L720.807 833.178L696.426 831.605L600.848 825.355ZM415.703 813.417L414.815 813.368C329.563 808.101 282.859 805.161 274.703 804.548C262.462 803.614 169.672 797.638 161.698 797.118C156.377 796.767 141.997 795.765 118.558 794.113L118.916 792.378C193.433 797.121 237.196 799.929 250.205 800.805L415.828 811.669L415.703 813.417ZM1304.43 871.275C1283.19 869.87 1212.04 865.334 1154.78 861.626L1155.03 860.025L1299.99 869.428L1304.66 869.73L1304.43 871.275ZM1372.39 875.79L1372.65 874.14C1413.14 876.766 1457.53 879.638 1468.19 880.34L1678 894.147L1786.67 901.295C1786.49 902.173 1786.4 902.609 1786.4 902.609C1786.4 902.609 1692.96 896.288 1681.93 895.53L1633.21 892.433C1544.09 886.89 1495.72 883.884 1488.1 883.416C1476.71 882.672 1427.64 879.308 1423.06 879.14C1420.88 879.027 1397.46 877.489 1372.39 875.825V875.79ZM936.881 1047.59C938.236 1029.92 939.217 1017.23 939.389 1015.73C939.669 1013.13 940.611 1001.06 941.546 988.696H942.784C940.993 1012.04 939.365 1033.51 939.365 1033.51C939.365 1033.51 938.953 1038.93 938.291 1047.59H936.881ZM931.329 1120.81V1122.13H932.653C930.761 1146.88 929.18 1167.59 929.048 1169.26C928.713 1173.58 921.261 1270.94 920.209 1284.89C919.158 1298.83 909.751 1419.84 909.027 1429.14C908.544 1435.35 906.613 1460.25 903.234 1503.86L902.081 1503.78C902.081 1503.78 907.236 1439.55 907.828 1431.94C908.217 1426.86 909.053 1415.7 910.335 1398.45C914.816 1337.2 917.255 1303.96 917.655 1298.73C918.263 1290.9 920.996 1257.15 921.12 1254.01C921.245 1250.86 926.478 1184.9 927.148 1176.35C927.358 1173.08 929.157 1149.2 931.329 1120.81V1120.81ZM966.371 666.045L970.124 617.591L971.355 617.647C969.725 637.567 968.663 650.739 968.17 657.162C968.045 658.7 967.812 661.797 967.484 666.066L966.371 666.045ZM973.675 569.656C973.862 566.931 974.062 564.005 974.275 560.878C978.532 502.297 980.914 470.198 981.423 464.58C982.202 456.153 987.022 392.369 987.45 386.884C987.731 383.233 988.543 373.343 989.888 357.215L991.445 357.306C987.614 408.523 985.353 438.607 984.663 447.558L975.186 569.747L973.675 569.656ZM1381.99 511.932L1383.11 513.098L1373.12 520.886C1330.55 553.858 1303.66 574.705 1292.45 583.427C1287.33 587.416 1269.02 601.685 1245.92 619.761L1244.97 618.771L1372.21 519.657C1374.1 518.168 1377.36 515.593 1381.99 511.932V511.932ZM1433.22 471.609C1499.92 419.279 1536.72 390.475 1543.62 385.199C1554.75 376.695 1638.27 311.464 1645.45 305.846C1650.25 302.101 1663.25 292.035 1684.46 275.65L1685.52 277.117C1618.49 329.551 1579.12 360.347 1567.4 369.504L1434.56 473.028L1433.22 471.609ZM1153.58 1056.26L1235.76 1141.86C1240.65 1146.97 1351.05 1261.94 1366.86 1278.45L1530.25 1448.96L1614.88 1537.28L1613.64 1537.98C1613.64 1537.98 1541.05 1461.98 1532.49 1452.98C1526.74 1446.98 1514.07 1433.81 1494.47 1413.46C1424.81 1341.25 1387.02 1302.06 1381.08 1295.89C1372.21 1286.63 1334.1 1246.66 1330.46 1243.03C1326.82 1239.39 1252.18 1161.33 1242.47 1151.23C1237.71 1146.26 1195.08 1101.9 1152.24 1057.31L1153.58 1056.26ZM656.058 539.818L584.417 465.03C579.968 460.395 566.73 446.736 544.703 424.054C478.067 355 441.597 317.131 435.295 310.446C425.888 300.411 353.531 225.089 347.302 218.607C343.149 214.286 331.987 202.563 313.817 183.439L315.453 182.484C373.622 242.942 407.776 278.449 417.915 289.006L585.803 464.18C622.371 502.569 645.488 526.817 655.154 536.925L657.124 538.982L656.058 539.818ZM403.244 1029.35C350.261 1046.79 320.67 1056.48 314.472 1058.43C302.869 1062.07 215.405 1090.64 207.883 1093.08C202.868 1094.71 189.282 1099.07 167.125 1106.17L166.666 1104.45C236.874 1081.45 278.117 1067.95 290.394 1063.95L402.527 1027.49L403.244 1029.35ZM1287.61 740.953L1286.93 739.549C1315.03 730.42 1421.99 695.483 1438.97 689.964L1636.83 625.582L1739.34 592.254L1739.69 593.553C1739.69 593.553 1651.49 622.015 1641.05 625.407C1634.09 627.668 1618.79 632.68 1595.17 640.442C1511.25 668.063 1465.69 683.044 1458.51 685.385C1447.77 688.896 1401.42 703.798 1397.16 705.329C1392.89 706.859 1302.35 736.157 1290.62 739.977L1287.61 740.953ZM1082.81 1166.77C1093.97 1194.33 1116.7 1250.44 1120.76 1260.5C1126.06 1273.64 1172.07 1387.61 1175.6 1396.39L1204.01 1466.77L1202.92 1467.12C1202.92 1467.12 1178.66 1406.55 1175.76 1399.39C1173.84 1394.61 1169.57 1384.1 1162.95 1367.87C1139.41 1310.29 1126.65 1279.03 1124.67 1274.1C1121.69 1266.72 1108.97 1234.89 1107.67 1231.97C1106.59 1229.55 1089.29 1186.52 1081.53 1167.21L1082.81 1166.77ZM815.466 510.212C810.571 498.17 807.663 490.975 806.745 488.625C803.63 480.647 779.295 420.599 777.208 415.437C775.822 411.996 772.105 402.661 766.057 387.432L767.498 386.962C787.1 435.163 798.602 463.478 802.002 471.904L817.21 509.594L815.466 510.212ZM827.614 1088.76L829.218 1089.46L767.802 1207.51C764.624 1213.61 693.046 1351.35 682.759 1371.07C672.473 1390.8 583.342 1561.88 576.49 1575.04L521.443 1680.68L520.213 1679.98C520.213 1679.98 567.714 1589.25 573.336 1578.49C577.074 1571.32 585.266 1555.52 597.912 1531.1C642.75 1444.34 667.092 1397.27 670.939 1389.87C676.709 1378.8 701.697 1331.14 703.886 1326.67C706.074 1322.2 754.797 1228.92 761.105 1216.83C764.5 1210.3 797.392 1146.95 827.614 1088.76V1088.76ZM1071.71 619.901L1073.1 620.603L1043.61 677.379C1043.07 678.405 1038.39 687.45 1031.29 701.122L1029.84 700.42C1049.69 662.274 1071.6 620.077 1071.6 620.077L1071.71 619.901ZM1100.65 564.333L1188.57 395.585C1191.47 390.037 1199.92 373.586 1213.94 346.232C1256.79 263.241 1280.32 217.797 1284.53 209.899C1290.86 198.045 1337.73 107.794 1341.78 100.041C1344.47 94.8912 1351.81 80.9307 1363.79 58.1594L1365.43 59.1215C1327.86 131.597 1305.77 174.169 1299.17 186.838C1292.57 199.506 1256.18 269.365 1189.98 396.414C1165.94 442.158 1150.78 471.066 1144.5 483.14C1140.47 490.865 1122.03 526.363 1101.97 564.965L1100.65 564.333ZM400.254 616.264L389.507 611.783C297.48 573.151 247.088 551.932 238.33 548.125C225.185 542.416 125.106 500.148 116.51 496.511C110.799 494.081 95.3185 487.461 70.0677 476.652L71.1268 475.184C151.525 509.046 198.738 528.959 212.765 534.923L400.978 614.677L400.254 616.264ZM1377.65 1029.83L1354.94 1020.16C1347.99 1017.21 1282.74 989.679 1220.37 963.324L1221 961.828L1344.61 1014.09L1378.33 1028.35L1377.65 1029.83ZM1510.26 1085.94L1510.91 1084.43C1517.8 1087.34 1523.03 1089.54 1525.93 1090.75L1752.11 1186.58L1869.26 1236.22C1868.72 1236.97 1868.48 1237.33 1868.48 1237.33C1868.48 1237.33 1767.87 1194.49 1755.94 1189.42C1747.99 1186.05 1730.47 1178.67 1703.39 1167.27C1607.19 1126.85 1555 1104.9 1546.81 1101.43C1540.82 1098.94 1525.25 1092.31 1510.27 1085.94H1510.26ZM528.74 902.257L465.081 910.15C459.412 910.853 442.657 913.025 414.815 916.667C330.196 927.491 283.832 933.362 275.723 934.279C263.537 935.684 171.377 947.215 163.481 948.198C158.201 948.849 143.904 950.567 120.59 953.352L120.543 951.583C194.51 942.252 237.961 936.782 250.898 935.171L465.042 908.627C491.876 905.396 513.049 902.84 528.561 900.958L528.74 902.257ZM1374.33 797.146C1345.46 800.714 1311.11 804.927 1304.02 805.805C1299.35 806.388 1265.5 810.636 1225.07 815.699L1224.86 814.119L1293.6 805.538L1374.11 795.475L1374.33 797.146ZM1510.88 780.082L1510.66 778.474L1669.05 758.811L1776.99 745.469C1776.99 746.353 1777.03 746.803 1777.03 746.803C1777.03 746.803 1684.2 758.102 1673.22 759.443C1665.89 760.356 1649.77 762.39 1624.85 765.546L1510.88 780.082ZM910.912 608.399L909.494 599.269C908.887 595.374 907.01 583.869 903.864 564.754C894.52 506.656 889.448 474.821 888.648 469.25C887.457 460.865 877.482 397.565 876.633 392.123C876.062 388.5 874.577 378.668 872.179 362.629L873.736 362.439C881.793 413.244 886.517 443.092 887.909 451.982C889.3 460.872 896.942 509.917 910.834 599.115C911.317 602.275 911.779 605.318 912.22 608.244L910.912 608.399ZM981.377 1059.85L982.778 1059.7C988.79 1097.99 999.365 1165.3 999.84 1168.36C1000.51 1172.65 1015.7 1269.27 1017.86 1283.12C1020.02 1296.98 1038.74 1417.08 1040.18 1426.32C1041.14 1432.47 1044.99 1457.2 1051.73 1500.49L1050.59 1500.63C1050.59 1500.63 1040.82 1436.83 1039.65 1429.28C1038.86 1424.25 1037.11 1413.17 1034.38 1396.06C1024.64 1335.3 1019.36 1302.34 1018.55 1297.15C1017.34 1289.38 1012.24 1255.86 1011.63 1252.76C1011.02 1249.66 1000.94 1184.16 999.621 1175.67C998.749 1170.08 988.486 1105.14 981.377 1059.85V1059.85ZM610.418 1253.81C588.926 1279.42 569.699 1302.32 563.96 1309.15L412.985 1488.75L334.788 1581.75L333.744 1580.81C333.744 1580.81 401.149 1500.97 409.107 1491.5C414.418 1485.18 426.073 1471.27 444.071 1449.75C507.925 1373.29 542.577 1331.81 548.028 1325.31C556.228 1315.57 591.635 1273.64 594.836 1269.64C595.926 1268.24 604.764 1257.7 616.266 1244.05L609.102 1252.94L610.418 1253.81ZM1088.1 682.422L1117.44 647.464L1178.4 574.951L1179.7 575.576L1089.41 683.278L1088.1 682.422ZM1219.98 525.485L1283.58 449.819C1287.7 444.931 1299.76 430.418 1319.78 406.28C1380.82 333.135 1414.31 293.093 1420.23 286.155C1429.15 275.748 1495.76 196.269 1501.54 189.436C1505.37 184.885 1515.77 172.606 1532.74 152.596L1534.11 153.839C1480.64 217.701 1449.23 255.205 1439.88 266.352L1284.77 450.893C1251.85 489.788 1230.67 514.849 1221.22 526.075L1219.98 525.485ZM1367.35 1134.4L1366.19 1135.69C1339.33 1117.31 1308.79 1096.36 1302.28 1091.93C1297.74 1088.83 1265.01 1066.52 1226.01 1039.92L1227.11 1038.69L1293.57 1084.05C1296.54 1086.08 1330.97 1109.58 1367.35 1134.4ZM1519.78 1238.52L1652.41 1329.23L1755.56 1399.74L1754.51 1400.68C1754.51 1400.68 1666.01 1339.87 1655.52 1332.72C1648.52 1327.94 1633.09 1317.43 1609.22 1301.19L1518.72 1239.72L1519.78 1238.52ZM745.889 711.916L719.6 693.973L531.379 565.302L532.259 564.165C559.415 582.839 577.396 595.189 586.2 601.215C599.461 610.245 696.94 676.747 746.777 710.743L745.889 711.916ZM414.597 485.984C357.238 447.038 325.353 425.33 318.941 420.859C307.401 412.811 219.267 352.742 211.691 347.531C206.645 344.076 193.028 334.699 170.84 319.399L172.218 318.163C243.033 366.384 284.619 394.707 296.974 403.134L415.828 484.404L414.597 485.984ZM489.703 1109.54L488.644 1108L534.541 1082.31C574.784 1059.98 600.196 1045.85 610.776 1039.93C619.716 1034.92 671.164 1006.03 715.122 981.336L715.948 982.53L535.242 1083.65C530.377 1086.38 516.049 1094.51 492.257 1108.05L489.672 1109.51L489.703 1109.54ZM332.179 1198.02C307.627 1211.78 280.738 1226.87 276.891 1229.02C272.37 1231.56 260.084 1238.37 240.035 1249.47L239.194 1247.87C281.343 1224.15 311.928 1206.94 330.949 1196.26L332.179 1198.02ZM1355.57 624.044C1353.15 625.407 1351.46 626.369 1350.83 626.755C1347.01 629.051 1265.17 674.683 1254.6 680.617C1246.98 684.879 1150.94 738.86 1095.08 770.173L1094.22 768.769L1244.95 684.205L1354.69 622.633L1355.57 624.044ZM1413.42 591.699L1412.52 590.225L1566.88 503.849L1659.46 452.024L1660.09 453.232C1660.09 453.232 1580.39 497.606 1570.96 502.88C1564.68 506.396 1550.87 514.167 1529.53 526.194C1467.87 560.997 1429.17 582.832 1413.42 591.699V591.699ZM1125.39 1102.02L1124.21 1102.66C1112.8 1086.26 1098 1064.97 1084.49 1045.56L1085.7 1044.9C1098.8 1063.74 1114.27 1086.01 1125.39 1102.02ZM1169.29 1165.22C1185.83 1189.04 1204.09 1215.32 1208.45 1221.62L1293.43 1344.27L1337.44 1407.78L1336.46 1408.33C1336.46 1408.33 1298.76 1353.64 1294.28 1347.17C1291.29 1342.85 1284.69 1333.37 1274.48 1318.75C1238.18 1266.82 1218.49 1238.63 1215.42 1234.2C1210.81 1227.54 1191.02 1198.79 1189.07 1196.18C1188.12 1194.9 1178.37 1180.82 1168.05 1165.91L1169.29 1165.22ZM854.697 714.114L801.901 637.928L803.046 637.331C821.496 664.194 833.194 681.197 838.142 688.341C840.182 691.291 846.918 700.982 855.686 713.622L854.697 714.114ZM742.011 552.395C731.296 537.039 725.066 528.074 723.322 525.499C718.455 518.28 680.789 464.11 677.558 459.454C675.408 456.345 669.62 447.918 660.193 434.173L661.493 433.471C691.785 476.883 709.57 502.4 714.85 510.022L743.662 551.559L742.011 552.395ZM869.609 1157.02C874.858 1136.66 880.441 1115.04 885.728 1094.57L887.465 1094.9L871.369 1157.35L869.609 1157.02ZM854.814 1214.31L846.022 1251.63L846.894 1251.8C836.53 1291.89 810.023 1394.51 805.514 1411.91C800.009 1433.13 752.259 1617.19 748.591 1631.34C746.135 1640.78 736.306 1678.67 719.101 1745L717.731 1744.52C717.731 1744.52 743.296 1646.87 746.294 1635.29C748.298 1627.57 752.666 1610.58 759.399 1584.33C783.243 1491.07 796.196 1440.46 798.257 1432.52C801.371 1420.58 814.804 1369.32 815.902 1364.49C817 1359.67 843.157 1259.37 846.552 1246.35C847.284 1243.62 850.344 1231.63 854.837 1214.31H854.814ZM1008.58 620.33L1010.14 620.575C1003.64 645.8 998.913 664.114 998.508 665.687C998.189 666.902 995.175 678.629 990.721 695.947L989.101 695.694C996.187 668.398 1003.98 638.23 1008.61 620.33H1008.58ZM1036.03 514.467L1075.39 362.91C1076.95 356.941 1081.43 339.261 1088.83 309.87C1111.6 220.667 1124.14 171.803 1126.44 163.278C1129.91 150.497 1154.94 53.4333 1157.11 45.0978C1158.54 39.536 1162.5 24.5035 1168.98 0L1170.8 0.632015C1150.76 78.5899 1138.98 124.374 1135.45 137.983C1131.93 151.592 1112.42 226.748 1076.95 363.451C1063.97 412.701 1055.8 443.82 1052.45 456.806C1050.84 463.028 1044.89 486.062 1037.51 514.692L1036.03 514.467ZM565.175 770.658L402.426 736.318C395.807 734.914 376.202 730.874 343.611 724.198C244.695 703.664 190.51 692.365 181.056 690.301C166.884 687.176 59.2515 664.599 50.0083 662.646C43.841 661.336 27.1716 657.759 0 651.916L0.700833 650.273C87.1473 668.344 137.916 678.969 153.007 682.148L403.026 734.9C457.639 746.604 492.146 753.968 506.547 756.992L565.479 769.366L565.175 770.658ZM1405.61 947.622L1406.25 946.133C1457.85 956.976 1548.61 976.049 1565.64 979.637L1808.97 1030.98L1935 1057.57L1934.47 1058.81C1934.47 1058.81 1826.18 1035.75 1813.34 1033.05C1804.78 1031.25 1785.95 1027.31 1756.83 1021.23C1653.42 999.728 1597.3 988.05 1588.49 986.196C1575.25 983.387 1518.41 971.266 1513.06 970.276C1508.97 969.525 1442.89 955.529 1405.61 947.636V947.622Z" fill="#282823"/>
</svg>
