<svg width="27" height="27" viewBox="0 0 27 27" fill="none" xmlns="http://www.w3.org/2000/svg">
<g id="entrance_line">
<path id="&#229;&#189;&#162;&#231;&#138;&#182;" d="M13.7505 3.53125C14.3546 3.53125 14.8442 4.02094 14.8442 4.625C14.8442 5.18591 14.422 5.64821 13.878 5.71139L13.7505 5.71875H8.28174C7.72083 5.71875 7.25853 6.14099 7.19535 6.68495L7.18799 6.8125V19.9375C7.18799 20.4984 7.61022 20.9607 8.15419 21.0239L8.28174 21.0312H13.2036C13.8077 21.0312 14.2974 21.5209 14.2974 22.125C14.2974 22.6859 13.8751 23.1482 13.3312 23.2114L13.2036 23.2188H8.28174C6.53428 23.2188 5.10586 21.8528 5.00606 20.1303L5.00049 19.9375V6.8125C5.00049 5.06504 6.3665 3.63662 8.08894 3.53682L8.28174 3.53125H13.7505ZM19.9925 9.50801L23.0862 12.6016C23.5133 13.0287 23.5133 13.7213 23.0862 14.1484L19.9925 17.242C19.5654 17.6692 18.873 17.6692 18.4457 17.242C18.0186 16.8148 18.0186 16.1223 18.4457 15.6952L19.6723 14.4688H13.7505C13.1464 14.4688 12.6567 13.9791 12.6567 13.375C12.6567 12.7709 13.1464 12.2812 13.7505 12.2812H19.6723L18.4457 11.0548C18.0186 10.6277 18.0186 9.93515 18.4457 9.50801C18.873 9.08087 19.5654 9.08087 19.9925 9.50801Z" fill="#737784"/>
</g>
</svg>
