<svg width="20" height="20" viewBox="0 0 20 20" fill="none" xmlns="http://www.w3.org/2000/svg">
<path d="M2.0732 6.31345H2.34688C3.40055 6.31345 4.26265 7.17555 4.26265 8.22922V17.808C4.26265 18.8617 3.40055 19.7238 2.34688 19.7238H2.0732C1.01953 19.7238 0.15744 18.8617 0.15744 17.808V8.22922C0.15744 7.17555 1.01953 6.31345 2.0732 6.31345ZM9.73626 0.566162C10.7899 0.566162 11.652 1.42826 11.652 2.48193V17.808C11.652 18.8617 10.7899 19.7238 9.73626 19.7238C8.68259 19.7238 7.8205 18.8617 7.8205 17.808V2.48193C7.8205 1.42826 8.68259 0.566162 9.73626 0.566162ZM17.3993 11.5134C18.453 11.5134 19.3151 12.3755 19.3151 13.4291V17.808C19.3151 18.8617 18.453 19.7238 17.3993 19.7238C16.3456 19.7238 15.4836 18.8617 15.4836 17.808V13.4291C15.4836 12.3755 16.3456 11.5134 17.3993 11.5134Z" fill="#3574f2"/>
</svg>
