<svg width="62" height="62" viewBox="0 0 62 62" fill="none" xmlns="http://www.w3.org/2000/svg">
<g clip-path="url(#clip0_1013_2152)">
<path d="M55.3177 17.2222H6.68211C5.8234 17.2222 4.99986 17.5634 4.39266 18.1706C3.78546 18.7778 3.44434 19.6013 3.44434 20.46V51.8733C3.44434 52.7321 3.78546 53.5556 4.39266 54.1628C4.99986 54.77 5.8234 55.1111 6.68211 55.1111H55.3177C56.1764 55.1111 56.9999 54.77 57.6071 54.1628C58.2143 53.5556 58.5554 52.7321 58.5554 51.8733V20.46C58.5554 19.6013 58.2143 18.7778 57.6071 18.1706C56.9999 17.5634 56.1764 17.2222 55.3177 17.2222ZM55.111 51.6667H6.88878V20.6667H55.111V51.6667Z" fill="#A6A6A6"/>
<path d="M14.7424 33.4972C15.7642 33.4972 16.7631 33.1942 17.6128 32.6265C18.4625 32.0588 19.1247 31.2518 19.5157 30.3077C19.9068 29.3637 20.0091 28.3248 19.8097 27.3226C19.6104 26.3203 19.1183 25.3997 18.3957 24.6772C17.6732 23.9546 16.7526 23.4625 15.7503 23.2632C14.7481 23.0638 13.7092 23.1661 12.7652 23.5572C11.8211 23.9482 11.0141 24.6104 10.4464 25.4601C9.8787 26.3098 9.57568 27.3087 9.57568 28.3306C9.57568 29.7008 10.12 31.015 11.089 31.9839C12.0579 32.9529 13.3721 33.4972 14.7424 33.4972ZM14.7424 25.575C15.2901 25.5613 15.8294 25.7112 16.2916 26.0055C16.7537 26.2999 17.1176 26.7253 17.3367 27.2274C17.5559 27.7296 17.6204 28.2857 17.522 28.8247C17.4236 29.3636 17.1667 29.861 16.7842 30.2533C16.4017 30.6456 15.911 30.915 15.3747 31.027C14.8383 31.1391 14.2808 31.0887 13.7733 30.8823C13.2657 30.6759 12.8312 30.3229 12.5253 29.8684C12.2194 29.4138 12.0559 28.8784 12.0557 28.3306C12.0555 27.6115 12.3363 26.9209 12.8383 26.406C13.3402 25.8912 14.0235 25.593 14.7424 25.575Z" fill="#A6A6A6"/>
<path d="M13.6053 48.2222L23.9386 37.8889L29.4153 43.3656L24.5586 48.2222H28.0031L40.8509 35.3745L51.6664 46.1039V42.6595L41.6775 32.7223C41.4485 32.4951 41.139 32.3676 40.8164 32.3676C40.4938 32.3676 40.1843 32.4951 39.9553 32.7223L31.0686 41.6089L24.7481 35.3056C24.5191 35.0784 24.2096 34.9509 23.887 34.9509C23.5644 34.9509 23.2549 35.0784 23.0259 35.3056L10.1953 48.2222H13.6053Z" fill="#A6A6A6"/>
<path d="M51.9076 5.16668C51.9076 4.70992 51.7261 4.27186 51.4031 3.94889C51.0801 3.62591 50.6421 3.44446 50.1853 3.44446H12.2964C11.8397 3.44446 11.4016 3.62591 11.0786 3.94889C10.7557 4.27186 10.5742 4.70992 10.5742 5.16668V6.8889H51.9076V5.16668Z" fill="#A6A6A6"/>
<path d="M55.3179 12.0555C55.3179 11.5988 55.1365 11.1607 54.8135 10.8377C54.4905 10.5148 54.0525 10.3333 53.5957 10.3333H8.81793C8.36116 10.3333 7.92311 10.5148 7.60013 10.8377C7.27715 11.1607 7.0957 11.5988 7.0957 12.0555V13.7778H55.3179V12.0555Z" fill="#A6A6A6"/>
</g>
<defs>
<clipPath id="clip0_1013_2152">
<rect width="62" height="62" fill="white"/>
</clipPath>
</defs>
</svg>
