<svg width="71" height="71" viewBox="0 0 71 71" fill="none" xmlns="http://www.w3.org/2000/svg">
<path d="M50.8479 43.4434L38.8918 22.6799C38.5455 22.0877 38.0502 21.5964 37.4551 21.255C36.86 20.9136 36.1859 20.734 35.4998 20.734C34.8138 20.734 34.1397 20.9136 33.5446 21.255C32.9495 21.5964 32.4542 22.0877 32.1079 22.6799L20.1518 43.4434C19.8158 44.0181 19.6387 44.6719 19.6387 45.3376C19.6387 46.0034 19.8158 46.6571 20.1518 47.2319C20.4943 47.8271 20.9889 48.3204 21.585 48.6614C22.1811 49.0023 22.8571 49.1785 23.5438 49.1719H47.4559C48.1421 49.178 48.8176 49.0016 49.4131 48.6607C50.0087 48.3198 50.5029 47.8266 50.8452 47.2319C51.1816 46.6574 51.3592 46.0037 51.3596 45.338C51.3601 44.6722 51.1835 44.0183 50.8479 43.4434ZM48.0041 45.5899C47.9485 45.6846 47.8684 45.7626 47.7721 45.8155C47.6758 45.8685 47.5671 45.8944 47.4573 45.8906H23.5438C23.434 45.8944 23.3252 45.8685 23.229 45.8155C23.1327 45.7626 23.0525 45.6846 22.9969 45.5899C22.9497 45.5132 22.9248 45.4249 22.9248 45.3349C22.9248 45.2449 22.9497 45.1566 22.9969 45.0799L34.953 24.3164C35.0122 24.2253 35.0932 24.1504 35.1887 24.0986C35.2842 24.0467 35.3912 24.0196 35.4998 24.0196C35.6085 24.0196 35.7155 24.0467 35.811 24.0986C35.9065 24.1504 35.9875 24.2253 36.0467 24.3164L48.0014 45.0799C48.049 45.1563 48.0744 45.2445 48.0749 45.3345C48.0754 45.4245 48.0509 45.5129 48.0041 45.5899ZM33.8592 36.5938V32.2188C33.8592 31.7836 34.0321 31.3664 34.3397 31.0587C34.6474 30.751 35.0647 30.5781 35.4998 30.5781C35.935 30.5781 36.3523 30.751 36.6599 31.0587C36.9676 31.3664 37.1405 31.7836 37.1405 32.2188V36.5938C37.1405 37.0289 36.9676 37.4462 36.6599 37.7539C36.3523 38.0615 35.935 38.2344 35.4998 38.2344C35.0647 38.2344 34.6474 38.0615 34.3397 37.7539C34.0321 37.4462 33.8592 37.0289 33.8592 36.5938ZM37.6873 42.0625C37.6873 42.4952 37.559 42.9181 37.3187 43.2778C37.0783 43.6376 36.7367 43.9179 36.337 44.0835C35.9373 44.2491 35.4974 44.2924 35.0731 44.208C34.6487 44.1236 34.259 43.9152 33.953 43.6093C33.6471 43.3034 33.4388 42.9136 33.3544 42.4893C33.27 42.0649 33.3133 41.6251 33.4789 41.2254C33.6444 40.8257 33.9248 40.484 34.2845 40.2437C34.6443 40.0033 35.0672 39.875 35.4998 39.875C36.08 39.875 36.6364 40.1055 37.0466 40.5157C37.4569 40.926 37.6873 41.4824 37.6873 42.0625Z" fill="#E73F28"/>
</svg>
