<svg width="64" height="64" viewBox="0 0 64 64" fill="none" xmlns="http://www.w3.org/2000/svg">
<path d="M5.75293 31.8024C5.75293 19.5228 5.75293 13.3829 9.56656 9.56668C13.3854 5.75305 19.5226 5.75305 31.8023 5.75305C44.082 5.75305 50.2218 5.75305 54.0355 9.56668C57.8517 13.3855 57.8517 19.5228 57.8517 31.8024C57.8517 44.0821 57.8517 50.2219 54.0355 54.0356C50.2244 57.8518 44.082 57.8518 31.8023 57.8518C19.5226 57.8518 13.3828 57.8518 9.56656 54.0356C5.75293 50.2246 5.75293 44.0821 5.75293 31.8024Z" stroke="#979797" stroke-width="3.90741"/>
<path d="M42.2221 26.5926C45.0994 26.5926 47.432 24.2601 47.432 21.3827C47.432 18.5054 45.0994 16.1729 42.2221 16.1729C39.3447 16.1729 37.0122 18.5054 37.0122 21.3827C37.0122 24.2601 39.3447 26.5926 42.2221 26.5926Z" stroke="#979797" stroke-width="3.90741"/>
<path d="M13.5674 35.2071L15.6774 33.2456C16.8363 32.1686 18.3742 31.5938 19.9554 31.6465C21.5366 31.6992 23.0327 32.3752 24.1174 33.5269L31.0127 40.8468C32.4167 42.3368 34.7117 42.5374 36.3502 41.3157C37.4933 40.4624 38.9018 40.0416 40.3256 40.1279C41.7495 40.2142 43.0968 40.8021 44.1285 41.7872L50.0365 47.4321" stroke="#979797" stroke-width="3.90741" stroke-linecap="round"/>
</svg>
