<svg width="36" height="34" viewBox="0 0 36 34" fill="none" xmlns="http://www.w3.org/2000/svg">
<path fill-rule="evenodd" clip-rule="evenodd" d="M18.2399 16.3337C16.3133 16.3337 14.7516 17.8954 14.7516 19.822C14.7516 21.7485 16.3133 23.3103 18.2399 23.3103C20.1664 23.3103 21.7282 21.7485 21.7282 19.822C21.7282 17.8954 20.1664 16.3337 18.2399 16.3337ZM11.2632 19.822C11.2632 15.9689 14.3868 12.8454 18.2399 12.8454C22.0929 12.8454 25.2165 15.9689 25.2165 19.822C25.2165 23.675 22.0929 26.7986 18.2399 26.7986C14.3868 26.7986 11.2632 23.675 11.2632 19.822Z" fill="#9691A4"/>
<path fill-rule="evenodd" clip-rule="evenodd" d="M12.2849 3.40215C12.9391 2.74796 13.8264 2.38045 14.7516 2.38045H18.2399C19.2031 2.38045 19.984 3.16133 19.984 4.1246C19.984 5.08787 19.2031 5.86875 18.2399 5.86875L14.7516 5.86875C14.7516 7.25648 14.2003 8.58738 13.219 9.56865C12.2377 10.5499 10.9068 11.1012 9.5191 11.1012H6.03079C5.56822 11.1012 5.12458 11.285 4.79749 11.6121C4.4704 11.9391 4.28664 12.3828 4.28664 12.8454V28.5427C4.28664 29.0053 4.4704 29.4489 4.79749 29.776C5.12458 30.1031 5.56822 30.2869 6.03079 30.2869H30.4489C30.9115 30.2869 31.3551 30.1031 31.6822 29.776C32.0093 29.4489 32.1931 29.0053 32.1931 28.5427V16.3337C32.1931 15.3704 32.9739 14.5895 33.9372 14.5895C34.9005 14.5895 35.6814 15.3704 35.6814 16.3337V28.5427C35.6814 29.9305 35.1301 31.2613 34.1488 32.2426C33.1675 33.2239 31.8366 33.7752 30.4489 33.7752H6.03079C4.64306 33.7752 3.31217 33.2239 2.33089 32.2426C1.34961 31.2613 0.79834 29.9305 0.79834 28.5427V12.8454C0.79834 11.4576 1.34961 10.1267 2.33089 9.14545C3.31217 8.16418 4.64306 7.6129 6.03079 7.6129H9.5191C9.98168 7.6129 10.4253 7.42914 10.7524 7.10205C11.0795 6.77496 11.2632 6.33133 11.2632 5.86875C11.2632 4.94359 11.6308 4.05633 12.2849 3.40215Z" fill="#9691A4"/>
<path fill-rule="evenodd" clip-rule="evenodd" d="M21.7282 7.61284C21.7282 6.64957 22.509 5.86869 23.4723 5.86869H33.9372C34.9005 5.86869 35.6814 6.64957 35.6814 7.61284C35.6814 8.57611 34.9005 9.35699 33.9372 9.35699H23.4723C22.509 9.35699 21.7282 8.57611 21.7282 7.61284Z" fill="#9691A4"/>
<path fill-rule="evenodd" clip-rule="evenodd" d="M28.7048 0.63623C29.668 0.63623 30.4489 1.41711 30.4489 2.38038V12.8453C30.4489 13.8086 29.668 14.5894 28.7048 14.5894C27.7415 14.5894 26.9606 13.8086 26.9606 12.8453V2.38038C26.9606 1.41711 27.7415 0.63623 28.7048 0.63623Z" fill="#9691A4"/>
</svg>
