<svg width="16" height="13" viewBox="0 0 16 13" fill="none" xmlns="http://www.w3.org/2000/svg">
<path d="M12.9382 1.29647C13.1981 1.04903 13.5439 0.912242 13.9028 0.914957C14.2616 0.917672 14.6053 1.05968 14.8615 1.31102C15.1176 1.56236 15.2661 1.90336 15.2755 2.26208C15.285 2.6208 15.1548 2.96918 14.9123 3.2337L7.5508 12.4402C7.42421 12.5765 7.27144 12.6859 7.1016 12.7619C6.93177 12.8378 6.74836 12.8788 6.56235 12.8822C6.37634 12.8856 6.19154 12.8515 6.01901 12.7819C5.84648 12.7123 5.68975 12.6086 5.55821 12.4771L0.676376 7.59525C0.540425 7.46857 0.431382 7.3158 0.355752 7.14607C0.280123 6.97633 0.239455 6.7931 0.236177 6.6073C0.232899 6.42151 0.267077 6.23695 0.336672 6.06465C0.406267 5.89235 0.509853 5.73584 0.64125 5.60444C0.772648 5.47304 0.929165 5.36946 1.10147 5.29986C1.27377 5.23027 1.45832 5.19609 1.64411 5.19937C1.82991 5.20264 2.01314 5.24331 2.18288 5.31894C2.35262 5.39457 2.50538 5.50361 2.63206 5.63956L6.49546 9.50112L12.9031 1.33706C12.9146 1.32285 12.9251 1.3093 12.9382 1.29647Z" fill="white"/>
</svg>
