<svg width="44" height="46" viewBox="0 0 44 46" fill="none" xmlns="http://www.w3.org/2000/svg">
<path opacity="0.2" d="M42.0889 15.625H28.9639V2.5L42.0889 15.625Z" fill="#3574f2"/>
<path d="M4.58887 37.1875C4.58887 39.7656 6.27168 41.875 8.33887 41.875C8.79132 41.8649 9.23698 41.7628 9.64876 41.5751C10.0605 41.3873 10.4298 41.1178 10.7342 40.7828C11.0796 40.431 11.5498 40.2294 12.0428 40.2217C12.5358 40.2139 13.012 40.4008 13.3683 40.7416C13.7246 41.0825 13.9323 41.55 13.9463 42.0429C13.9604 42.5358 13.7798 43.0143 13.4436 43.375C12.7907 44.0778 12.0012 44.6399 11.1234 45.0268C10.2456 45.4137 9.29809 45.6172 8.33887 45.625C4.20215 45.625 0.838867 41.8398 0.838867 37.1875C0.838867 32.5352 4.20215 28.75 8.33887 28.75C9.29809 28.7578 10.2456 28.9613 11.1234 29.3482C12.0012 29.7351 12.7907 30.2972 13.4436 31C13.7798 31.3607 13.9604 31.8392 13.9463 32.3321C13.9323 32.825 13.7246 33.2925 13.3683 33.6334C13.012 33.9742 12.5358 34.1611 12.0428 34.1533C11.5498 34.1456 11.0796 33.944 10.7342 33.5922C10.4298 33.2572 10.0605 32.9877 9.64876 32.7999C9.23698 32.6122 8.79132 32.5101 8.33887 32.5C6.27168 32.5 4.58887 34.6094 4.58887 37.1875ZM23.2451 35.1508C22.3076 34.8789 21.3373 34.6 20.7959 34.2508C20.5029 34.0609 20.5076 34.0164 20.5334 33.8055C20.5375 33.6352 20.5822 33.4683 20.6637 33.3187C20.7452 33.1691 20.8612 33.0411 21.0021 32.9453C22.0803 32.2141 24.5975 32.5398 25.6498 32.8141C26.1309 32.9427 26.6435 32.875 27.0746 32.6258C27.5058 32.3766 27.8204 31.9663 27.949 31.4852C28.0777 31.004 28.01 30.4915 27.7608 30.0603C27.5115 29.6291 27.1012 29.3146 26.6201 29.1859C26.1232 29.057 21.6982 27.9625 18.9232 29.8328C18.3364 30.2267 17.8433 30.7446 17.4788 31.3501C17.1143 31.9556 16.8873 32.6338 16.8139 33.3367C16.3451 37.0586 20.0131 38.1203 22.2045 38.7531C25.0311 39.5711 25.2795 39.9062 25.1998 40.532C25.1271 41.0969 24.9045 41.3148 24.6982 41.4531C23.6201 42.1703 21.1428 41.8187 20.1162 41.5375C19.6363 41.4035 19.1229 41.4657 18.6889 41.7103C18.2548 41.9549 17.9357 42.3619 17.8018 42.8418C17.6678 43.3217 17.73 43.8351 17.9746 44.2691C18.2192 44.7032 18.6262 45.0223 19.1061 45.1562C20.2685 45.4607 21.4646 45.6182 22.6662 45.625C24.0303 45.625 25.549 45.3906 26.7654 44.5797C27.3658 44.1807 27.8704 43.6537 28.2428 43.0365C28.6152 42.4193 28.8463 41.7273 28.9193 41.0102C29.4326 36.9531 25.5631 35.8211 23.2451 35.1508ZM42.7193 28.8602C42.4874 28.7771 42.2414 28.7406 41.9954 28.7527C41.7494 28.7648 41.5081 28.8252 41.2855 28.9306C41.0628 29.0359 40.8631 29.1841 40.6977 29.3666C40.5323 29.5492 40.4046 29.7626 40.3217 29.9945L37.4014 38.1742L34.4787 29.9945C34.3115 29.5262 33.9651 29.1434 33.5156 28.9304C33.0662 28.7175 32.5506 28.6918 32.0822 28.859C31.6138 29.0262 31.2311 29.3726 31.0181 29.822C30.8052 30.2715 30.7795 30.7871 30.9467 31.2555L35.6342 44.3805C35.7641 44.7448 36.0036 45.0601 36.3198 45.283C36.636 45.5059 37.0133 45.6255 37.4002 45.6255C37.787 45.6255 38.1644 45.5059 38.4806 45.283C38.7968 45.0601 39.0362 44.7448 39.1662 44.3805L43.8537 31.2555C44.0207 30.7874 43.995 30.2722 43.7823 29.823C43.5696 29.3739 43.1872 29.0276 42.7193 28.8602ZM43.9639 15.625V21.25C43.9639 21.7473 43.7663 22.2242 43.4147 22.5758C43.0631 22.9275 42.5861 23.125 42.0889 23.125C41.5916 23.125 41.1147 22.9275 40.763 22.5758C40.4114 22.2242 40.2139 21.7473 40.2139 21.25V17.5H28.9639C28.4666 17.5 27.9897 17.3025 27.638 16.9508C27.2864 16.5992 27.0889 16.1223 27.0889 15.625V4.375H6.46387V21.25C6.46387 21.7473 6.26632 22.2242 5.91469 22.5758C5.56306 22.9275 5.08615 23.125 4.58887 23.125C4.09159 23.125 3.61467 22.9275 3.26304 22.5758C2.91141 22.2242 2.71387 21.7473 2.71387 21.25V4.375C2.71387 3.38044 3.10896 2.42661 3.81222 1.72335C4.51548 1.02009 5.46931 0.625001 6.46387 0.625001H28.9639C29.2102 0.624807 29.4541 0.673142 29.6817 0.767245C29.9093 0.861347 30.1162 0.999374 30.2904 1.17344L43.4154 14.2984C43.5895 14.4727 43.7275 14.6795 43.8216 14.9072C43.9157 15.1348 43.9641 15.3787 43.9639 15.625ZM37.5631 13.75L30.8389 7.02578V13.75H37.5631Z" fill="#3574f2"/>
</svg>
