<svg width="14" height="14" viewBox="0 0 14 14" fill="none" xmlns="http://www.w3.org/2000/svg">
<path fill-rule="evenodd" clip-rule="evenodd" d="M6.99999 2.125C7.5983 2.125 8.08333 2.61003 8.08333 3.20833C8.08333 3.80664 7.5983 4.29167 6.99999 4.29167C6.40169 4.29167 5.91666 3.80664 5.91666 3.20833C5.91666 2.61003 6.40169 2.125 6.99999 2.125Z" fill="#454056"/>
<path fill-rule="evenodd" clip-rule="evenodd" d="M6.99999 5.91666C7.5983 5.91666 8.08333 6.40169 8.08333 7C8.08333 7.59831 7.5983 8.08333 6.99999 8.08333C6.40169 8.08333 5.91666 7.59831 5.91666 7C5.91666 6.40169 6.40169 5.91666 6.99999 5.91666Z" fill="#454056"/>
<path fill-rule="evenodd" clip-rule="evenodd" d="M6.99999 9.70833C7.5983 9.70833 8.08333 10.1934 8.08333 10.7917C8.08333 11.39 7.5983 11.875 6.99999 11.875C6.40169 11.875 5.91666 11.39 5.91666 10.7917C5.91666 10.1934 6.40169 9.70833 6.99999 9.70833Z" fill="#454056"/>
</svg>
