<svg width="22" height="22" viewBox="0 0 22 22" fill="none" xmlns="http://www.w3.org/2000/svg">
<path fill-rule="evenodd" clip-rule="evenodd" d="M4.27677 6.34425C4.76741 5.85361 5.43286 5.57798 6.12673 5.57798H8.74295C9.22459 5.57798 9.61503 5.96842 9.61503 6.45005C9.61503 6.93169 9.22459 7.32213 8.74295 7.32213H6.12673C5.89544 7.32213 5.67362 7.41401 5.51007 7.57755C5.34653 7.7411 5.25465 7.96292 5.25465 8.1942V16.0429C5.25465 16.2742 5.34653 16.496 5.51007 16.6595C5.67362 16.8231 5.89544 16.915 6.12673 16.915H13.9754C14.2067 16.915 14.4285 16.8231 14.5921 16.6595C14.7556 16.496 14.8475 16.2742 14.8475 16.0429V13.4267C14.8475 12.945 15.2379 12.5546 15.7196 12.5546C16.2012 12.5546 16.5916 12.945 16.5916 13.4267V16.0429C16.5916 16.7368 16.316 17.4022 15.8254 17.8928C15.3347 18.3835 14.6693 18.6591 13.9754 18.6591H6.12673C5.43286 18.6591 4.76741 18.3835 4.27677 17.8928C3.78614 17.4022 3.5105 16.7368 3.5105 16.0429V8.1942C3.5105 7.50034 3.78614 6.83489 4.27677 6.34425Z" fill="#454056"/>
<path fill-rule="evenodd" clip-rule="evenodd" d="M15.5389 2.78115C16.0494 2.27067 16.7418 1.98389 17.4637 1.98389C18.1856 1.98389 18.878 2.27067 19.3885 2.78115C19.899 3.29163 20.1857 3.98399 20.1857 4.70591C20.1857 5.42784 19.899 6.1202 19.3885 6.63068L11.9758 14.0433C11.8123 14.2069 11.5905 14.2987 11.3592 14.2987H8.74296C8.26132 14.2987 7.87088 13.9083 7.87088 13.4267V10.8104C7.87088 10.5792 7.96276 10.3573 8.12631 10.1938L15.5389 2.78115ZM17.4637 3.72804C17.2044 3.72804 16.9556 3.83106 16.7723 4.01445L9.61503 11.1717V12.5546H10.998L18.1552 5.39738C18.3386 5.21399 18.4416 4.96526 18.4416 4.70591C18.4416 4.44657 18.3386 4.19784 18.1552 4.01445C17.9718 3.83106 17.7231 3.72804 17.4637 3.72804Z" fill="#454056"/>
<path fill-rule="evenodd" clip-rule="evenodd" d="M14.2308 4.08928C14.5714 3.74872 15.1236 3.74872 15.4641 4.08928L18.0804 6.70551C18.4209 7.04608 18.4209 7.59825 18.0804 7.93881C17.7398 8.27938 17.1876 8.27938 16.8471 7.93881L14.2308 5.32258C13.8903 4.98202 13.8903 4.42985 14.2308 4.08928Z" fill="#454056"/>
</svg>
