<svg width="91" height="91" viewBox="0 0 91 91" fill="none" xmlns="http://www.w3.org/2000/svg">
<g clip-path="url(#clip0_775_5031)">
<path d="M67.5296 16.9487C67.2263 16.9487 66.9229 16.8728 66.6575 16.7212C59.3775 12.9674 53.0833 11.3749 45.5379 11.3749C38.0304 11.3749 30.9021 13.157 24.4183 16.7212C23.5083 17.2141 22.3708 16.8728 21.84 15.9628C21.3471 15.0528 21.6883 13.8774 22.5983 13.3845C29.6508 9.55492 37.3858 7.58325 45.5379 7.58325C53.6142 7.58325 60.6667 9.36534 68.4017 13.3466C69.3496 13.8395 69.6908 14.977 69.1979 15.887C68.8567 16.5695 68.2121 16.9487 67.5296 16.9487ZM13.2708 36.8549C12.8917 36.8549 12.5125 36.7412 12.1713 36.5137C11.2992 35.907 11.1096 34.7316 11.7163 33.8595C15.47 28.5512 20.2475 24.3803 25.935 21.4608C37.8408 15.3183 53.0833 15.2803 65.0271 21.4228C70.7146 24.3424 75.4921 28.4753 79.2458 33.7457C79.8525 34.5799 79.6629 35.7933 78.7908 36.3999C77.9188 37.0066 76.7433 36.817 76.1367 35.9449C72.7242 31.1674 68.4017 27.4137 63.2829 24.7974C52.4008 19.2237 38.4854 19.2237 27.6413 24.8353C22.4846 27.4895 18.1621 31.2812 14.7496 36.0587C14.4463 36.5895 13.8775 36.8549 13.2708 36.8549ZM36.9688 82.6203C36.4758 82.6203 35.9829 82.4307 35.6417 82.0516C32.3429 78.7528 30.5608 76.6295 28.0204 72.0416C25.4042 67.3778 24.0392 61.6903 24.0392 55.5858C24.0392 44.3245 33.67 35.1487 45.5 35.1487C57.33 35.1487 66.9608 44.3245 66.9608 55.5858C66.9608 56.6474 66.1267 57.4816 65.065 57.4816C64.0033 57.4816 63.1692 56.6474 63.1692 55.5858C63.1692 46.4099 55.2446 38.9403 45.5 38.9403C35.7554 38.9403 27.8308 46.4099 27.8308 55.5858C27.8308 61.0457 29.0442 66.0887 31.3571 70.1837C33.7838 74.5441 35.4521 76.402 38.3717 79.3595C39.0921 80.1178 39.0921 81.2932 38.3717 82.0516C37.9546 82.4307 37.4617 82.6203 36.9688 82.6203ZM64.155 75.6058C59.6429 75.6058 55.6617 74.4682 52.4008 72.2312C46.7513 68.4016 43.3767 62.1833 43.3767 55.5858C43.3767 54.5241 44.2108 53.6899 45.2725 53.6899C46.3342 53.6899 47.1683 54.5241 47.1683 55.5858C47.1683 60.932 49.8983 65.9749 54.5242 69.0841C57.2163 70.9041 60.3633 71.7762 64.155 71.7762C65.065 71.7762 66.5817 71.6624 68.0983 71.397C69.1221 71.2074 70.1079 71.8899 70.2975 72.9516C70.4871 73.9753 69.8046 74.9612 68.7429 75.1507C66.5817 75.5678 64.6858 75.6058 64.155 75.6058ZM56.5338 83.4166C56.3821 83.4166 56.1925 83.3787 56.0408 83.3407C50.0121 81.6724 46.0688 79.4353 41.9358 75.3782C36.6275 70.1078 33.7079 63.0933 33.7079 55.5858C33.7079 49.4432 38.9404 44.4383 45.3863 44.4383C51.8321 44.4383 57.0646 49.4432 57.0646 55.5858C57.0646 59.6428 60.5908 62.9416 64.9513 62.9416C69.3117 62.9416 72.8379 59.6428 72.8379 55.5858C72.8379 41.2912 60.515 29.6887 45.3483 29.6887C34.58 29.6887 24.7217 35.6795 20.2854 44.9691C18.8067 48.0403 18.0483 51.6424 18.0483 55.5858C18.0483 58.5432 18.3138 63.207 20.5888 69.2737C20.9679 70.2595 20.475 71.3591 19.4892 71.7003C18.5033 72.0795 17.4038 71.5487 17.0625 70.6008C15.2046 65.6337 14.2946 60.7045 14.2946 55.5858C14.2946 51.0357 15.1667 46.9028 16.8729 43.3008C21.9158 32.722 33.1013 25.8591 45.3483 25.8591C62.6004 25.8591 76.6296 39.1678 76.6296 55.5478C76.6296 61.6903 71.3971 66.6953 64.9513 66.6953C58.5054 66.6953 53.2729 61.6903 53.2729 55.5478C53.2729 51.4907 49.7467 48.192 45.3863 48.192C41.0258 48.192 37.4996 51.4907 37.4996 55.5478C37.4996 62.0316 40.0021 68.0982 44.59 72.6482C48.1921 76.2124 51.6425 78.1841 56.9888 79.6628C58.0125 79.9283 58.5813 80.9899 58.3158 81.9758C58.1263 82.8478 57.33 83.4166 56.5338 83.4166Z" fill="#3574F2"/>
</g>
<defs>
<clipPath id="clip0_775_5031">
<rect width="91" height="91" fill="white"/>
</clipPath>
</defs>
</svg>
