<svg width="54" height="54" viewBox="0 0 54 54" fill="none" xmlns="http://www.w3.org/2000/svg">
<path d="M0.606971 0.849159H43.7019C48.7302 0.849159 52.8065 4.92541 52.8065 9.95373V43.9441C52.8065 48.9724 48.7302 53.0487 43.7019 53.0487H0.606971V0.849159Z" fill="white"/>
<path d="M34.5615 29.3264V32.8264C34.5615 33.2905 34.3771 33.7357 34.049 34.0639C33.7208 34.392 33.2757 34.5764 32.8115 34.5764H20.5615C20.0974 34.5764 19.6523 34.392 19.3241 34.0639C18.9959 33.7357 18.8115 33.2905 18.8115 32.8264V29.3264" stroke="black" stroke-width="2" stroke-linecap="round" stroke-linejoin="round"/>
<path d="M31.0615 23.2014L26.6865 18.8264L22.3115 23.2014" stroke="black" stroke-width="2" stroke-linecap="round" stroke-linejoin="round"/>
<path d="M26.6865 18.8264V29.3264" stroke="black" stroke-width="2" stroke-linecap="round" stroke-linejoin="round"/>
<path d="M0.606971 0.849159H43.7019C48.7302 0.849159 52.8065 4.92541 52.8065 9.95373V43.9441C52.8065 48.9724 48.7302 53.0487 43.7019 53.0487H0.606971V0.849159Z" stroke="#D5D2DC" stroke-width="1.21394"/>
</svg>
